<?xml version="1.0" encoding="utf-8"?>
<svg width="1000" height="200" viewBox="0 0 264.58333 52.916666" version="1.1" id="svg5" xmlns="http://www.w3.org/2000/svg" xmlns:bx="https://boxy-svg.com"><defs id="defs2"><bx:export><bx:file format="svg" path="jollytrack.svg"/></bx:export><filter id="drop-shadow-filter-0" bx:preset="drop-shadow 1 0 0 3 0.73 #0000008b" color-interpolation-filters="sRGB" x="-50%" y="-50%" width="200%" height="200%"><feGaussianBlur in="SourceAlpha" stdDeviation="3"/><feOffset dx="0" dy="0"/><feComponentTransfer result="offsetblur"><feFuncA id="spread-ctrl" type="linear" slope="1.46"/></feComponentTransfer><feFlood flood-color="#0000008b"/><feComposite in2="offsetblur" operator="in"/><feMerge><feMergeNode/><feMergeNode in="SourceGraphic"/></feMerge></filter><filter id="outline-filter-0" bx:preset="outline 1 1 #006208" color-interpolation-filters="sRGB" x="-50%" y="-50%" width="200%" height="200%"><feMorphology in="SourceAlpha" result="dilated" operator="dilate" radius="1"/><feFlood flood-color="#006208" result="flood"/><feComposite in="flood" in2="dilated" operator="in" result="outline"/><feMerge><feMergeNode in="outline"/><feMergeNode in="SourceGraphic"/></feMerge></filter><filter id="outline-filter-1" bx:preset="outline 1 4 #006a00" color-interpolation-filters="sRGB" x="-50%" y="-50%" width="200%" height="200%"><feMorphology in="SourceAlpha" result="dilated" operator="dilate" radius="4"/><feFlood flood-color="#006a00" result="flood"/><feComposite in="flood" in2="dilated" operator="in" result="outline"/><feMerge><feMergeNode in="outline"/><feMergeNode in="SourceGraphic"/></feMerge></filter></defs><g id="g5128" transform="matrix(1, 0, -0.191465, 1, 7.83031, 0)"><title>main</title><rect style="font-size:59.2131px;font-family:Impact;-inkscape-font-specification:Impact;fill:#112052;fill-opacity:1;stroke:none;stroke-width:0.37098;stroke-dasharray:none;stroke-opacity:1" id="rect19982-1" width="72.351089" height="0.95230049" x="143.26874" y="3.2728517" transform="matrix(1,0,0.18804934,0.98215958,0,0)"/><rect style="font-size:59.2131px;font-family:Impact;-inkscape-font-specification:Impact;fill:#112052;fill-opacity:1;stroke:none;stroke-width:0.372483;stroke-dasharray:none;stroke-opacity:1" id="rect19982-1-3" width="72.938583" height="0.95230049" x="142.6154" y="7.2492614" transform="matrix(1,0,0.18804934,0.98215958,0,0)"/><g id="g872" transform="matrix(0.07480357,0,0.01424868,0.07441914,212.37131,-1.9847472)" style="fill: rgb(179, 193, 255); fill-opacity: 1; filter: url(&quot;#outline-filter-1&quot;);"><rect y="122.35137" x="24.190477" height="12.567708" width="24.072357" id="rect827" style="opacity: 1; fill-opacity: 1; stroke: none; stroke-width: 10; stroke-linecap: square; stroke-linejoin: bevel; stroke-miterlimit: 4; stroke-dasharray: none; stroke-opacity: 1; paint-order: stroke; fill: rgb(255, 0, 0);"/><rect y="118.76457" x="128.67104" height="12.567708" width="24.072357" id="rect827-6" style="opacity: 1; fill-opacity: 1; stroke: none; stroke-width: 10; stroke-linecap: square; stroke-linejoin: bevel; stroke-miterlimit: 4; stroke-dasharray: none; stroke-opacity: 1; paint-order: stroke; fill: rgb(255, 0, 0);"/><path id="path844" d="m 20.938897,104.1713 h -2.296848 v 2.40751 h 2.3052 v 6.76526 h 5.220108 v 7.36547 h 6.468523 v -7.27604 h 2.303293 v 8.97693 h 2.385976 v -8.98874 h 10.370722 l 11.221167,11.62277 49.514882,2.83481 4.74832,-14.62295 26.46809,-4.04657 v 9.68852 h 2.23838 v -10.02261 l 2.05135,-0.30861 v 5.23261 h 6.45116 v -7.43801 l 1.52845,-0.55124 2.3e-4,-6.841554 -1.52845,-0.55124 v -7.438007 h -6.45116 v 5.232607 l -2.05135,-0.30861 V 85.880999 h -2.23838 v 9.688517 l -26.46809,-4.04657 -4.74832,-14.622944 -49.514867,2.834807 -11.22117,11.622767 H 37.325392 v -8.988737 h -2.385976 v 8.976927 H 32.636123 V 84.069729 H 26.1676 v 7.365467 h -5.220108 v 6.76526 h -2.3052 v 2.407514 h 2.296848 z" style="fill-opacity: 1; stroke: none; stroke-width: 0.264583px; stroke-linecap: butt; stroke-linejoin: miter; stroke-opacity: 1; fill: rgb(255, 0, 0);"/><rect transform="scale(1,-1)" y="-82.427887" x="24.155148" height="12.567708" width="24.072357" id="rect827-9" style="opacity: 1; fill-opacity: 1; stroke: none; stroke-width: 10; stroke-linecap: square; stroke-linejoin: bevel; stroke-miterlimit: 4; stroke-dasharray: none; stroke-opacity: 1; paint-order: stroke; fill: rgb(255, 0, 0);"/><rect transform="scale(1,-1)" y="-86.014694" x="128.63574" height="12.567708" width="24.072357" id="rect827-6-8" style="opacity: 1; fill-opacity: 1; stroke: none; stroke-width: 10; stroke-linecap: square; stroke-linejoin: bevel; stroke-miterlimit: 4; stroke-dasharray: none; stroke-opacity: 1; paint-order: stroke; fill: rgb(255, 0, 0);"/></g><path id="path4993" style="font-family: &quot;FORCED SQUARE&quot;; fill-opacity: 1; stroke-width: 1.40413; stroke-dasharray: none; stroke-opacity: 1; filter: url(&quot;#outline-filter-0&quot;) url(&quot;#drop-shadow-filter-0&quot;); stroke: rgb(0, 0, 0); paint-order: fill; fill: rgb(214, 9, 9);" d="M 113.184 3.894 L 113.333 11.02 L 125.551 11.02 L 126.132 38.725 L 132.477 38.725 L 131.897 11.02 L 144.114 11.02 L 143.965 3.894 L 113.184 3.894 Z M 144.114 11.02 L 144.695 38.725 L 151.041 38.725 L 150.604 17.88 L 157.365 17.88 L 157.509 24.739 L 163.855 24.739 L 163.568 11.02 L 144.114 11.02 Z M 200.215 10.754 L 200.799 38.658 L 225.709 38.658 L 225.56 31.533 L 206.996 31.533 L 206.709 17.813 L 225.273 17.813 L 225.124 10.754 L 200.215 10.754 Z M 169.141 10.953 L 169.278 17.48 L 187.842 17.48 L 187.937 22.009 L 169.373 22.009 L 169.722 38.658 L 194.631 38.658 L 194.051 10.953 L 169.141 10.953 Z M 175.838 27.67 L 188.055 27.67 L 188.156 32.465 L 175.938 32.465 L 175.838 27.67 Z M 231.169 2.029 L 231.938 38.725 L 238.047 38.725 L 237.831 28.402 L 241.567 28.402 L 250.917 38.725 L 256.61 38.725 L 256.538 35.262 L 247.125 24.739 L 256.103 14.483 L 256.03 11.02 L 250.574 11.02 L 241.419 21.343 L 237.682 21.343 L 237.278 2.029 L 231.169 2.029 Z M 72.041 2.717 L 72.809 39.346 L 78.917 39.346 L 78.15 2.717 L 72.041 2.717 Z M 28.314 11.641 L 28.895 39.346 L 53.804 39.346 L 53.224 11.641 L 28.314 11.641 Z M 84.327 11.641 L 84.907 39.346 L 100.921 39.346 L 94.603 46.339 L 94.696 50.801 L 99.5 50.801 L 109.58 39.346 L 109 11.641 L 102.891 11.641 L 103.327 32.487 L 90.873 32.487 L 90.436 11.641 L 84.327 11.641 Z M 34.804 18.501 L 47.021 18.501 L 47.315 32.487 L 35.097 32.487 L 34.804 18.501 Z M 22.629 2.7119999999999997 L 23.485 39.341 L 3.524 39.341 L 3.219 25.808 L 8.979 25.787 L 9.254 33.54 L 17.1 33.447 L 16.52 2.7119999999999997 L 22.629 2.7119999999999997 Z M 59.539 2.6959999999999997 L 60.307 39.325 L 66.415 39.325 L 65.648 2.6959999999999997 L 59.539 2.6959999999999997 Z"/></g></svg>